# xmcd CD database file
#
# Track frame offsets:
#	150
#	13084
#	27472
#	42465
#	59460
#	82400
#	97935
#	119765
#	139300
#	153327
#	177245
#	193775
#	212302
#
# Disc length: 2923 seconds
#
# Revision: 0
# Processed by: cddbd v1.5.1PL2 Copyright (c) Steve Scherf et al.
# Submitted via: CDex 1.50
#
DISCID=bc0b690d
DTITLE=Zé Luis - Guarani Banana
DYEAR=1999
DGENRE=Jazz
TTITLE0=Free Style
TTITLE1=Velvet Forest
TTITLE2=Na Bahía de Meu Pai
TTITLE3=Daybreak
TTITLE4=San Francisco
TTITLE5=Calendula
TTITLE6=Winds from Africa
TTITLE7=The Think
TTITLE8=Paixão Demais
TTITLE9=Dance of the Saints
TTITLE10=Inútil Paisagem [If You Never Come to Me]
TTITLE11=Viola Violar
TTITLE12=Velvet Forest Vignette
EXTD=YEAR: 1999
EXTT0=
EXTT1=
EXTT2=
EXTT3=
EXTT4=
EXTT5=
EXTT6=
EXTT7=
EXTT8=
EXTT9=
EXTT10=
EXTT11=
EXTT12=
PLAYORDER=
